<svg xmlns="http://www.w3.org/2000/svg" xmlns:xlink="http://www.w3.org/1999/xlink" width="11" height="16"><defs><path id="a" d="M185 201a2 2 0 1 1 4 0 2 2 0 0 1-4 0z"/><path id="b" d="M192 201a2 2 0 1 1 4 0 2 2 0 0 1-4 0z"/><path id="c" d="M185 195a2 2 0 1 1 4 0 2 2 0 0 1-4 0z"/><path id="d" d="M192 195a2 2 0 1 1 4 0 2 2 0 0 1-4 0z"/><path id="e" d="M185 189a2 2 0 1 1 4 0 2 2 0 0 1-4 0z"/><path id="f" d="M192 189a2 2 0 1 1 4 0 2 2 0 0 1-4 0z"/></defs><use fill="#1b2942" xlink:href="#a" opacity=".8" transform="translate(-185 -187)"/><use fill="#1b2942" xlink:href="#b" opacity=".8" transform="translate(-185 -187)"/><use fill="#1b2942" xlink:href="#c" opacity=".8" transform="translate(-185 -187)"/><use fill="#1b2942" xlink:href="#d" opacity=".8" transform="translate(-185 -187)"/><use fill="#1b2942" xlink:href="#e" opacity=".8" transform="translate(-185 -187)"/><use fill="#1b2942" xlink:href="#f" opacity=".8" transform="translate(-185 -187)"/></svg>